<svg width="800" height="560" viewBox="0 0 800 560" fill="none" xmlns="http://www.w3.org/2000/svg">
  <rect width="800" height="560" rx="32" fill="#F7F4EE"/>
  <rect x="310" y="108" width="180" height="340" rx="34" fill="#D94A4A"/>
  <rect x="332" y="84" width="136" height="36" rx="18" fill="#D9D4CA"/>
  <rect x="328" y="126" width="144" height="292" rx="28" fill="#C43333"/>
  <path d="M347 198C379 166 423 165 453 191C424 222 384 226 347 198Z" fill="#F7F4EE"/>
  <path d="M349 275C385 243 426 241 453 267C421 299 383 304 349 275Z" fill="#F7F4EE"/>
  <path d="M347 352C381 324 422 321 453 345C421 376 385 381 347 352Z" fill="#F7F4EE"/>
</svg>
